<svg xmlns="http://www.w3.org/2000/svg" width="278" height="165" viewBox="0 0 278 165"><g><g><g><g><path d="M9.224 143.41c1.406 0 2.528.416 3.365 1.248.837.832 1.256 1.954 1.256 3.365 0 1.411-.419 2.533-1.256 3.364-.837.832-1.959 1.248-3.365 1.248H2.48v-9.225zM0 141.092v23.086h2.48v-9.225h6.584l5.119 9.225h2.801l-5.441-9.563.499-.16c.322-.108.719-.323 1.191-.645a9.8 9.8 0 0 0 1.4-1.175c.462-.461.86-1.1 1.192-1.916.333-.815.5-1.717.5-2.704 0-1.975-.674-3.622-2.021-4.943-1.347-1.32-3.04-1.98-5.08-1.98z"/></g><g><path d="M25.546 141.092h2.479v23.086h-2.48z"/></g><g><path d="M50.754 155.436H41.85l4.459-10.883zm.998 2.318l2.64 6.424h2.624l-9.563-23.086h-2.302l-9.562 23.086h2.64l2.64-6.424z"/></g><g><path d="M64.596 164.178v-23.086h2.48v20.784H78.94v2.302z"/></g><g><path d="M98.545 141.092v2.318h-7.26v20.768h-2.463V143.41H81.56v-2.318z"/></g><g><path d="M105.61 152.635c0-2.705.907-4.974 2.72-6.81 1.814-1.835 4.041-2.753 6.681-2.753 2.64 0 4.868.918 6.682 2.753 1.813 1.836 2.72 4.105 2.72 6.81 0 2.705-.907 4.975-2.72 6.81-1.814 1.835-4.041 2.753-6.682 2.753-2.64 0-4.867-.918-6.68-2.753-1.814-1.835-2.721-4.105-2.721-6.81zm21.266 0c0-3.295-1.153-6.096-3.461-8.403-2.307-2.308-5.109-3.462-8.404-3.462-3.294 0-6.096 1.154-8.403 3.462-2.308 2.307-3.461 5.108-3.461 8.403 0 3.295 1.153 6.096 3.461 8.404 2.307 2.307 5.109 3.461 8.403 3.461 3.295 0 6.097-1.154 8.404-3.461 2.308-2.308 3.461-5.11 3.461-8.404z"/></g><g><path d="M158.859 144.891l-6.102 19.287h-2.479l-7.583-23.086h2.64l6.102 19.287 6.262-19.287h2.319l6.262 19.287 6.101-19.287h2.625l-7.583 23.086h-2.463z"/></g><g><path d="M183.068 152.635c0-2.705.907-4.974 2.721-6.81 1.814-1.835 4.041-2.753 6.681-2.753 2.64 0 4.867.918 6.681 2.753 1.814 1.836 2.72 4.105 2.72 6.81 0 2.705-.906 4.975-2.72 6.81s-4.04 2.753-6.68 2.753c-2.64 0-4.868-.918-6.682-2.753s-2.72-4.105-2.72-6.81zm21.267 0c0-3.295-1.154-6.096-3.461-8.403-2.308-2.308-5.109-3.462-8.404-3.462s-6.096 1.154-8.403 3.462c-2.308 2.307-3.462 5.108-3.462 8.403 0 3.295 1.154 6.096 3.462 8.404 2.307 2.307 5.108 3.461 8.403 3.461 3.295 0 6.096-1.154 8.404-3.461 2.307-2.308 3.46-5.11 3.46-8.404z"/></g><g><path d="M222.298 143.41c1.406 0 2.528.416 3.365 1.248.837.832 1.256 1.954 1.256 3.365 0 1.411-.419 2.533-1.256 3.364-.837.832-1.959 1.248-3.365 1.248h-6.745v-9.225zm-9.224-2.318v23.086h2.479v-9.225h6.584l5.12 9.225h2.801l-5.441-9.563.499-.16c.322-.108.719-.323 1.191-.645.472-.322.94-.713 1.4-1.175.462-.461.86-1.1 1.192-1.916.333-.815.499-1.717.499-2.704 0-1.975-.673-3.622-2.02-4.943-1.347-1.32-3.04-1.98-5.08-1.98z"/></g><g><path d="M252.964 141.092h3.123l-8.725 9.563 9.562 13.523h-2.978l-8.243-11.704-4.604 4.942v6.762h-2.48v-23.086h2.48v13.024z"/></g><g><path d="M274.356 155.887c-.461-.558-1.06-.993-1.795-1.304a20.782 20.782 0 0 0-2.439-.845 51.24 51.24 0 0 1-2.672-.837 12.882 12.882 0 0 1-2.44-1.12c-.734-.44-1.333-1.062-1.794-1.867-.462-.805-.692-1.765-.692-2.881 0-1.74.681-3.217 2.044-4.436 1.363-1.218 3.156-1.827 5.377-1.827.837 0 1.634.105 2.391.314.757.21 1.387.456 1.891.74.505.285.955.57 1.353.854.397.284.681.528.853.732l.274.322-1.659 1.658a3.003 3.003 0 0 0-.193-.25c-.086-.101-.29-.283-.611-.546a7.864 7.864 0 0 0-1.022-.709c-.36-.209-.838-.397-1.434-.563a6.813 6.813 0 0 0-1.843-.25c-1.513 0-2.718.387-3.614 1.16-.896.772-1.344 1.706-1.344 2.8 0 .795.23 1.471.692 2.029.461.558 1.062.993 1.803 1.304.74.311 1.556.593 2.447.845.89.252 1.779.532 2.665.838.885.305 1.698.678 2.438 1.118.74.44 1.342 1.06 1.803 1.86.462.8.693 1.763.693 2.89 0 1.953-.687 3.539-2.06 4.757-1.375 1.218-3.275 1.827-5.7 1.827-.988 0-1.926-.12-2.817-.363-.891-.24-1.62-.525-2.19-.853a12.996 12.996 0 0 1-1.513-1.006c-.44-.343-.746-.633-.918-.869l-.305-.37 1.513-1.675c.043.065.12.164.233.298.113.134.357.365.733.692.376.328.78.612 1.215.854.435.241 1.022.466 1.763.676.74.21 1.503.314 2.286.314 1.696 0 3-.395 3.912-1.184.912-.788 1.368-1.821 1.368-3.099 0-.794-.23-1.47-.692-2.028z"/></g></g><g><g><path d="M93.63 38.042v-3.748c-.001-7.067-.002-14.133.008-21.199 15.074 15.06 30.147 30.124 45.218 45.186l31.483 31.462c1.302 1.3 2.61 2.593 3.92 3.886 1.229 1.213 2.457 2.425 3.68 3.645-5.309.003-10.617.003-15.925.003-11.343.001-23.07.003-34.606.024-.966 0-1.527-.225-2.11-.838-3.78-3.978-7.736-7.901-11.561-11.696l-2.235-2.218a2263.434 2263.434 0 0 1-5.7-5.695c-3.767-3.77-7.661-7.67-11.55-11.452-.482-.468-.644-.88-.64-1.628.025-6.679.023-13.468.02-20.034l-.002-5.698zm85.6 61.556c.55 0 1.286-.147 1.665-.952.577-1.225-.423-2.102-.799-2.433-.063-.055-.125-.109-.178-.162-1.35-1.35-2.71-2.692-4.069-4.034a903.412 903.412 0 0 1-3.91-3.875 559199.78 559199.78 0 0 1-31.482-31.462C125.18 41.41 109.901 26.143 94.621 10.876a2.484 2.484 0 0 1-.14-.17c-.27-.343-.984-1.252-2.111-.841-.821.3-1.163 1.01-1.017 2.114.009.064.022.162.022.196-.011 7.373-.01 14.746-.01 22.119l.003 9.447c.003 6.563.005 13.35-.02 20.024-.006 1.358.403 2.364 1.325 3.26 3.878 3.77 7.766 7.664 11.527 11.43 1.9 1.902 3.8 3.804 5.706 5.7l2.236 2.22c3.814 3.782 7.758 7.694 11.515 11.648 1.014 1.066 2.167 1.542 3.739 1.542h.016c11.534-.021 23.26-.022 34.602-.024 5.479 0 10.958 0 16.437-.003.056 0 .165.013.262.024.125.015.308.036.517.036z"/></g><g><path d="M95.165 2.323zm0 0c6.905-.013 13.911-.012 20.694-.011l4.499.006 7.33-.003c5.345-.004 10.873-.008 16.309.007 12.106.032 22.6 7.272 26.733 18.444 2.838 7.667 2.507 15.845-.931 23.025-3.376 7.05-9.43 12.339-17.044 14.89-.765.257-1.11.178-1.673-.387-13.122-13.16-26.48-26.523-39.4-39.446A91910.506 91910.506 0 0 1 95.166 2.323zm56.886 58.762c.444 0 .916-.087 1.423-.256 8.201-2.749 14.724-8.452 18.367-16.06 3.705-7.738 4.064-16.542 1.013-24.789C168.388 7.912 157.064.092 144.004.058c-5.44-.015-10.97-.011-16.318-.007l-6.196.003-5.63-.007c-7.005 0-14.248 0-21.372.013-.037 0-.144-.015-.215-.024-1.143-.156-1.889.2-2.214 1.06-.462 1.222.508 1.956.873 2.232.064.048.151.114.18.144 5.656 5.66 11.313 11.318 16.97 16.977C123 33.37 136.358 46.733 149.478 59.892c.8.803 1.627 1.193 2.573 1.193z"/></g></g></g></g></svg>