<svg xmlns="http://www.w3.org/2000/svg" width="62" height="56" viewBox="0 0 62 56"><g><g><g><path fill="#fff" d="M10.337 43.333c-.659 0-1.193.534-1.193 1.193v3.42a1.193 1.193 0 1 0 2.386 0v-3.42c0-.66-.534-1.193-1.193-1.193z"/></g><g><path fill="#fff" d="M53.225 49.935h5.473v3.372h-5.473zm-16.56-2.386h-15.99v-6.277a4.501 4.501 0 0 0-3.653-4.413V2.363h19.644zm0 5.758h-5.47v-3.372h5.47zM18.29 51.199a2.112 2.112 0 0 1-2.111 2.108H4.497a2.112 2.112 0 0 1-2.111-2.108v-9.927c0-1.162.947-2.108 2.111-2.108h11.68c1.165 0 2.112.946 2.112 2.108zM6.039 33.268a3.515 3.515 0 0 1 3.51-3.51h1.573a3.516 3.516 0 0 1 3.514 3.51v3.51H6.038zM59.89-.022H15.83c-.658 0-1.193.533-1.193 1.192v27.365a5.872 5.872 0 0 0-3.514-1.163H9.549a5.903 5.903 0 0 0-5.897 5.896v3.59A4.502 4.502 0 0 0 0 41.273V51.2a4.5 4.5 0 0 0 4.497 4.494h11.68a4.5 4.5 0 0 0 4.498-4.494v-1.263h8.135V54.5c0 .659.534 1.193 1.193 1.193h7.856c.658 0 1.193-.534 1.193-1.193v-4.565h11.787V54.5c0 .659.534 1.193 1.193 1.193h7.86c.658 0 1.192-.534 1.192-1.193V31.133a1.193 1.193 0 1 0-2.386 0v16.416H39.052V2.363h19.646v18.063a1.193 1.193 0 1 0 2.386 0V1.17c0-.659-.534-1.193-1.193-1.193z"/></g><g><path fill="#fff" d="M54.22 7.694H43.527a1.193 1.193 0 1 0 0 2.386H54.22a1.193 1.193 0 0 0 0-2.386z"/></g><g><path fill="#fff" d="M55.413 14.273c0-.659-.534-1.193-1.193-1.193H43.527a1.193 1.193 0 1 0 0 2.386H54.22c.659 0 1.193-.534 1.193-1.193z"/></g><g><path fill="#fff" d="M21.497 10.08h10.694a1.193 1.193 0 1 0 0-2.386H21.497a1.193 1.193 0 1 0 0 2.386z"/></g><g><path fill="#fff" d="M21.497 15.466h10.694a1.193 1.193 0 1 0 0-2.386H21.497a1.193 1.193 0 1 0 0 2.386z"/></g><g><path fill="#fff" d="M42.334 24.395v2.609a1.193 1.193 0 1 0 2.386 0v-2.609a1.193 1.193 0 0 0-2.386 0z"/></g><g><path fill="#fff" d="M21.497 28.197c.66 0 1.193-.534 1.193-1.193v-2.609a1.193 1.193 0 1 0-2.386 0v2.609c0 .659.534 1.193 1.193 1.193z"/></g><g><path fill="#fff" d="M59.891 24.581c-.659 0-1.193.534-1.193 1.193v.007c0 .659.534 1.19 1.193 1.19a1.196 1.196 0 0 0 0-2.39z"/></g></g></g></svg>