<svg xmlns="http://www.w3.org/2000/svg" width="65" height="64" viewBox="0 0 65 64"><g><g><g><path fill="#211a1b" d="M62.872 60.903a1.2 1.2 0 0 1-1.199 1.199h-29.02a1.2 1.2 0 0 1-1.119-.772c2.108-1.572 3.634-3.8 4.47-6.562.887-2.931.746-5.388.61-7.764a91.89 91.89 0 0 1-.071-1.374h17.562a.937.937 0 1 0 0-1.875H36.517c.027-1.397.181-2.897.621-4.602h24.535a1.2 1.2 0 0 1 1.198 1.198v3.404h-3.245a.937.937 0 1 0 0 1.874h3.245zm-39.266-26.89l3.333-6.96a.604.604 0 0 0 .007-.016l6.059-12.652 3.498 1.652-6.068 12.673-.002.002-3.329 6.952zm1.216 6.418l-3.498-1.653 1.472-3.075 3.499 1.653zM21.4 47.578L17.9 45.926l2.613-5.456 3.498 1.652zm1.765 3.774c-.23.342-.636.584-1.065.382l-7.894-3.728c-.426-.202-.491-.663-.368-1.054a.798.798 0 0 1 1.06-.371l7.893 3.728c.415.244.54.592.374 1.043zM36.188 2.945c.453-.947 1.624-1.356 2.575-.907l3.755 1.773c.945.447 1.367 1.602.914 2.548l-3.42 7.14a1.94 1.94 0 0 1-2.574.906l-3.756-1.774c-.945-.446-1.366-1.602-.914-2.547zm25.485 34.333h-23.88c1.222-2.455 3.45-3.165 5.138-3.702.639-.203 1.191-.379 1.605-.633 1.742-1.07 2.322-3.282 1.32-5.034-1.222-2.028-4.013-2.552-5.795-.907-1.74 1.607-4.305 3.329-6.638 2.402a4.362 4.362 0 0 1-.985-.537l5.94-12.405a3.81 3.81 0 0 0 3.325-2.154l.452-.943 1.768.835c1.056.499 1.894-1.179.801-1.695l-1.759-.83.902-1.884 1.769.835c1.056.499 1.893-1.18.8-1.695L44.677 8.1l.446-.93c.437-.913.491-1.94.153-2.894a3.77 3.77 0 0 0-1.957-2.16L39.564.342c-1.893-.893-4.166-.09-5.067 1.793l-.452.943-1.768-.835c-1.096-.518-1.897 1.177-.801 1.695l1.76.83-.903 1.884-1.768-.835c-1.097-.517-1.897 1.178-.801 1.695l1.759.831-.446.93c-.601 1.256-.433 2.832.413 3.934L25.55 25.61a4.362 4.362 0 0 1-1.055-.423c-2.191-1.21-2.464-4.266-2.307-6.617.163-2.43-2.033-4.239-4.365-3.904a3.738 3.738 0 0 0-3.092 4.193c.136 1.045.709 2.023 1.025 3.02.366 1.156 2.153.59 1.787-.566-.276-.872-.834-1.784-.952-2.696a1.87 1.87 0 0 1 1.54-2.101c1.148-.155 2.268.705 2.186 1.93-.277 4.149.854 7.048 3.272 8.383a6.41 6.41 0 0 0 1.141.495l-2.819 5.887-1.541-.728a.937.937 0 1 0-.801 1.696l1.532.724-1.472 3.074-1.542-.728a.937.937 0 1 0-.801 1.696l1.533.724-2.613 5.456-.508-.24a2.678 2.678 0 0 0-3.552 1.259c-.562 1.34-.092 2.919 1.26 3.557l7.893 3.728c1.31.618 2.931.035 3.558-1.27.625-1.304.027-2.935-1.265-3.545l-.497-.235 2.613-5.456 1.306.617c1.056.498 1.894-1.18.8-1.696l-1.296-.612 1.472-3.075 1.307.617c1.056.498 1.894-1.18.8-1.696l-1.297-.612 2.82-5.889c.338.219.708.41 1.11.57 2.564 1.018 5.54.062 8.602-2.767.917-.846 2.263-.516 2.896.46.496.868.2 1.969-.674 2.506-.219.134-.692.285-1.192.444-2.04.649-5.38 1.744-6.774 5.963-1.175 3.557-1.003 6.626-.846 9.359.133 2.314.258 4.5-.533 7.112-.91 3.004-2.907 5.486-5.801 6.77-4.073 1.809-9.694 1.388-15.048-1.123-5.338-2.536-9.213-6.596-10.374-10.87-.82-3.02-.273-5.963 1.626-8.744 1.543-2.259 3.331-3.542 5.223-4.901 2.176-1.562 4.425-3.176 6.638-6.348a9.054 9.054 0 0 0 1.105-2.109c.41-1.14-1.355-1.775-1.765-.634a7.179 7.179 0 0 1-.878 1.67c-2.029 2.909-4.146 4.428-6.193 5.898-1.941 1.394-3.949 2.835-5.678 5.366C.872 42.41.22 45.97 1.177 49.494c1.295 4.769 5.51 9.256 11.289 12.028 3.657 1.714 7.045 2.452 10.269 2.452 2.48 0 4.992-.475 7.2-1.637a3.076 3.076 0 0 0 2.718 1.64h29.02a3.077 3.077 0 0 0 3.073-3.073V40.352a3.077 3.077 0 0 0-3.073-3.074z"/></g><g><path fill="#211a1b" d="M51.084 58.017c-1.206 0-1.208 1.875 0 1.875"/></g><g><path fill="#211a1b" d="M55.355 58.017c-1.206 0-1.208 1.875 0 1.875"/></g><g><path fill="#211a1b" d="M59.626 58.017c-1.206 0-1.208 1.875 0 1.875"/></g><g><path fill="#211a1b" d="M55.355 53.734c-1.206 0-1.208 1.875 0 1.875"/></g><g><path fill="#211a1b" d="M59.626 53.734c-1.206 0-1.208 1.875 0 1.875"/></g><g><path fill="#211a1b" d="M59.626 51.325c1.207 0 1.209-1.875 0-1.875"/></g></g></g></svg>