<svg xmlns="http://www.w3.org/2000/svg" width="33" height="40" viewBox="0 0 33 40"><g><g><g><path  d="M31.886 23.75c0 .531-.095 1.046-.28 1.528a4.2 4.2 0 0 0-3.431-2.364V17.56a.77.77 0 0 1 .77-.769h2.171a.77.77 0 0 1 .77.77zm-2.726 5.045H3.88c-.94 0-1.704-.764-1.704-1.704a3.04 3.04 0 0 1 3.036-3.036h22.616a3.04 3.04 0 0 1 3.037 3.036c0 .94-.765 1.704-1.705 1.704zm-.631 1.496c0 .393-.32.714-.714.714H5.225a.715.715 0 0 1-.713-.714v-.341h24.017zm-3.891 6.233V32.16h2.705v4.365zm3.89 1.407v.636a.252.252 0 0 1-.251.252h-4.572a.252.252 0 0 1-.252-.252v-.636c0-.139.113-.252.252-.252h4.572c.139 0 .252.113.252.252zM5.698 36.524V32.16h2.705v4.365zm3.89 1.407v.636a.252.252 0 0 1-.252.252H4.763a.252.252 0 0 1-.251-.252v-.636c0-.139.113-.252.251-.252h4.572c.139 0 .252.113.252.252zM1.434 25.278a4.268 4.268 0 0 1-.28-1.528v-6.19a.77.77 0 0 1 .77-.77h2.172a.77.77 0 0 1 .77.77v5.354a4.2 4.2 0 0 0-3.432 2.364zM33.04 17.56c0-1.06-.863-1.924-1.924-1.924h-2.172a1.91 1.91 0 0 0-.77.161V12.43a.577.577 0 1 0-1.154 0V22.9h-21V12.43a.577.577 0 1 0-1.154 0v3.366a1.912 1.912 0 0 0-.77-.16H1.924c-1.06 0-1.924.863-1.924 1.923v6.191c0 1.154.353 2.247 1.024 3.177a2.863 2.863 0 0 0 2.333 2.975v.39c0 .788.492 1.465 1.185 1.738v4.512a1.409 1.409 0 0 0-1.185 1.39v.635c0 .776.631 1.407 1.406 1.407h4.572c.776 0 1.407-.631 1.407-1.407v-.636c0-.7-.515-1.283-1.185-1.389V32.16h13.927v4.383a1.408 1.408 0 0 0-1.185 1.39v.635c0 .776.63 1.407 1.406 1.407h4.572c.775 0 1.406-.631 1.406-1.407v-.636c0-.7-.514-1.283-1.185-1.389V32.03a1.87 1.87 0 0 0 1.185-1.739v-.39a2.863 2.863 0 0 0 2.333-2.974 5.381 5.381 0 0 0 1.024-3.177z"/></g><g><path d="M5.443 10.696a.577.577 0 0 0 .577-.577V6.026a4.294 4.294 0 0 1 4.29-4.29h12.42a4.294 4.294 0 0 1 4.29 4.29v4.093a.577.577 0 1 0 1.155 0V6.026A5.45 5.45 0 0 0 22.73.582H10.309a5.45 5.45 0 0 0-5.443 5.444v4.093c0 .319.258.577.577.577z"/></g></g></g></svg>