<svg xmlns="http://www.w3.org/2000/svg" width="60" height="112" viewBox="0 0 60 112"><g><g transform="rotate(-135 30.5 56.5)"><path fill="#fff" d="M26.118 13.778l5.678.008c3.084 0 6.168-.002 9.252-.005 6.748-.004 13.725-.009 20.586.01 15.28.04 28.525 9.178 33.743 23.28 3.581 9.678 3.163 20-1.176 29.063-4.26 8.899-11.901 15.574-21.513 18.794-.966.324-1.4.224-2.111-.49-16.563-16.61-33.424-33.476-49.73-49.788L-.004 13.792c8.716-.016 17.56-.016 26.12-.014zm45.681 74.184c.562 0 1.156-.11 1.796-.324 10.352-3.468 18.586-10.667 23.183-20.27 4.677-9.767 5.13-20.88 1.279-31.29-5.636-15.231-19.93-25.101-36.415-25.145-6.866-.019-13.846-.014-20.596-.01-2.607.003-5.214.004-7.821.005l-7.107-.008c-8.841-.001-17.983-.002-26.975.016-.046 0-.181-.019-.271-.031-1.443-.197-2.384.253-2.795 1.338-.583 1.543.641 2.47 1.102 2.818.08.06.19.144.228.18 7.138 7.145 14.278 14.287 21.418 21.43 16.306 16.31 33.167 33.176 49.728 49.785 1.01 1.013 2.052 1.506 3.246 1.506z"/></g></g></svg>