<svg xmlns="http://www.w3.org/2000/svg" width="25" height="37" viewBox="0 0 25 37"><g><g><g><g><g><path fill="#fff" d="M21.335 18.801a.694.694 0 0 0-.026.038L12.565 31.82 3.822 18.841a10.807 10.807 0 0 1-2.152-6.505c0-6.007 4.887-10.894 10.895-10.894 6.007 0 10.894 4.887 10.894 10.895 0 2.347-.734 4.582-2.124 6.464zM12.565.004C5.765.004.232 5.537.232 12.337c0 2.65.828 5.174 2.393 7.301l9.344 13.87a.719.719 0 0 0 1.192 0l9.343-13.87a12.235 12.235 0 0 0 2.393-7.301c0-6.8-5.532-12.333-12.332-12.333z"/></g></g></g><g><g><g><path fill="#fff" d="M17.597 11.542a.719.719 0 0 0-.72.719 4.318 4.318 0 0 1-4.312 4.313 4.318 4.318 0 0 1-4.313-4.313 4.318 4.318 0 0 1 4.313-4.313c.864 0 1.698.254 2.41.736a.719.719 0 1 0 .806-1.192 5.724 5.724 0 0 0-3.216-.982 5.757 5.757 0 0 0-5.751 5.75c0 3.172 2.58 5.751 5.75 5.751 3.172 0 5.751-2.58 5.751-5.75a.719.719 0 0 0-.718-.72z"/></g></g></g><g><g><g><path fill="#fff" d="M21.179 35.263H3.927a.719.719 0 1 0 0 1.438h17.252a.719.719 0 1 0 0-1.438z"/></g></g></g><g><g><g><path fill="#fff" d="M17.021 9.177h-.014a.719.719 0 1 0 0 1.438h.014a.719.719 0 1 0 0-1.438z"/></g></g></g></g></g></svg>