<svg xmlns="http://www.w3.org/2000/svg" width="59" height="59" viewBox="0 0 59 59"><g><g><path fill="#d94452" d="M0 29.5C0 13.208 13.208 0 29.5 0S59 13.208 59 29.5 45.792 59 29.5 59 0 45.792 0 29.5z"/></g><g><g><path fill="#fff" d="M29 19.5c0-3.59 2.686-6.5 6-6.5s6 2.91 6 6.5-2.686 6.5-6 6.5-6-2.91-6-6.5z"/></g><g><path fill="#fff" d="M29 39a6 6 0 1 1 12 0 6 6 0 0 1-12 0z"/></g><g><path fill="#fff" d="M14 30c0-3.314 2.463-6 5.5-6 3.038 0 5.5 2.686 5.5 6s-2.462 6-5.5 6c-3.037 0-5.5-2.686-5.5-6z"/></g><g><path fill="none" stroke="#fff" stroke-miterlimit="20" stroke-width="6" d="M21.433 28.403l11.9-8.142"/></g><g transform="rotate(70 27.5 34.5)"><path fill="none" stroke="#fff" stroke-miterlimit="20" stroke-width="6" d="M21.433 38.423l11.9-8.141"/></g></g></g></svg>