<svg xmlns="http://www.w3.org/2000/svg" width="52" height="42" viewBox="0 0 52 42"><g><g><path  d="M51.54 5.526a21.762 21.762 0 0 1-6.015 1.648 10.38 10.38 0 0 0 4.592-5.77 20.86 20.86 0 0 1-6.619 2.528A10.46 10.46 0 0 0 35.874.628c-5.779 0-10.431 4.691-10.431 10.441 0 .828.07 1.623.242 2.38C17.007 13.026 9.328 8.867 4.17 2.531a10.509 10.509 0 0 0-1.429 5.276c0 3.615 1.862 6.82 4.637 8.675-1.677-.032-3.323-.519-4.716-1.286v.115c0 5.072 3.618 9.286 8.362 10.256-.85.233-1.775.344-2.736.344-.669 0-1.343-.038-1.976-.178 1.352 4.133 5.19 7.172 9.753 7.271a20.973 20.973 0 0 1-12.942 4.452 19.55 19.55 0 0 1-2.498-.143c4.624 2.981 10.103 4.684 16.013 4.684 19.207 0 29.708-15.911 29.708-29.703 0-.461-.016-.907-.038-1.349 2.072-1.47 3.812-3.306 5.232-5.42z"/></g></g></svg>