<svg xmlns="http://www.w3.org/2000/svg" width="59" height="59" viewBox="0 0 59 59"><g><g><path fill="#38abfa" d="M0 29.5C0 13.208 13.208 0 29.5 0S59 13.208 59 29.5 45.792 59 29.5 59 0 45.792 0 29.5z"/></g><g><path fill="#fff" d="M44.493 20.607a12.708 12.708 0 0 1-3.512.962 6.061 6.061 0 0 0 2.682-3.369 12.18 12.18 0 0 1-3.865 1.476 6.094 6.094 0 0 0-10.544 4.168c0 .483.04.948.141 1.39-5.067-.247-9.551-2.676-12.564-6.376a6.137 6.137 0 0 0-.834 3.081 6.104 6.104 0 0 0 2.707 5.066 6.02 6.02 0 0 1-2.754-.751v.067c0 2.962 2.113 5.422 4.884 5.99-.496.135-1.037.2-1.598.2a5.39 5.39 0 0 1-1.154-.104c.79 2.414 3.03 4.188 5.695 4.246a12.247 12.247 0 0 1-7.557 2.6c-.5 0-.98-.023-1.459-.084a17.16 17.16 0 0 0 9.351 2.735c11.216 0 17.349-9.291 17.349-17.345 0-.27-.01-.53-.023-.788a12.16 12.16 0 0 0 3.055-3.164z"/></g></g></svg>