<svg xmlns="http://www.w3.org/2000/svg" width="44" height="44" viewBox="0 0 44 44"><g><g><g><g><g><path  d="M21.955 41.396c-10.792 0-19.57-8.779-19.57-19.57 0-10.792 8.778-19.57 19.57-19.57s19.57 8.778 19.57 19.57c0 10.791-8.778 19.57-19.57 19.57zm0-41.005C10.136.391.521 10.007.521 21.826c0 11.818 9.615 21.434 21.434 21.434s21.434-9.616 21.434-21.434C43.39 10.007 33.774.39 21.955.39z"/></g></g></g><g><g><g><path  d="M31.002 29.555l-8.115-8.115V6.915a.932.932 0 0 0-1.864 0v14.91c0 .249.099.485.272.66l8.388 8.388a.936.936 0 0 0 1.32 0 .933.933 0 0 0 0-1.318z"/></g></g></g></g></g></svg>