<svg xmlns="http://www.w3.org/2000/svg" width="55" height="61" viewBox="0 0 55 61"><g><g><g><g><g><path fill="#fff" d="M51.561 41.535a5.004 5.004 0 0 1-2.933 1.95l-6.181 1.426c.31-.567.597-1.146.862-1.735l4.963-1.419a3.056 3.056 0 0 0-1.44-5.934l-1.572.314c.083-.696.132-1.399.153-2.106l.505-.169a4.956 4.956 0 0 1 4.51.69v-.002a5.004 5.004 0 0 1 1.133 6.985zM32.398 52.484H16.07A22.274 22.274 0 0 1 5.05 33.299v-2.02h38.37v2.02a22.274 22.274 0 0 1-11.021 19.185zm13.95 2.019a5.057 5.057 0 0 1-4.949 4.039H7.07a5.057 5.057 0 0 1-4.948-4.04zm-1.434-16.234v-.003l2.313-.462a1.036 1.036 0 0 1 .49 2.012l-3.491.998c.276-.835.505-1.684.688-2.545zm9.48-1.202a7.02 7.02 0 0 0-8.956-5.16V30.27a1.01 1.01 0 0 0-1.01-1.01H4.04a1.01 1.01 0 0 0-1.01 1.01v3.03a24.293 24.293 0 0 0 9.447 19.185H1.01A1.01 1.01 0 0 0 0 53.494a7.077 7.077 0 0 0 7.068 7.067H41.4a7.077 7.077 0 0 0 7.069-7.068 1.01 1.01 0 0 0-1.01-1.01H35.992a24.272 24.272 0 0 0 4.936-5.15l8.154-1.88a7.02 7.02 0 0 0 5.312-8.386z"/></g></g></g><g><g><g><path fill="#fff" d="M30.292 6.036a3.03 3.03 0 0 1-3.029-3.03V-.022h-2.02v3.03a5.055 5.055 0 0 0 5.05 5.048 3.03 3.03 0 1 1 0 6.059H19.184c-7.246.008-13.118 5.88-13.126 13.126h2.02c.006-6.131 4.975-11.1 11.106-11.107h11.107a5.049 5.049 0 0 0 0-10.097z"/></g></g></g><g><g><g><path fill="#fff" d="M37.36 19.162h4.544a7.573 7.573 0 0 0 0-15.146H41.4A3.03 3.03 0 0 1 38.37.987v-1.01h-2.02v1.01a5.049 5.049 0 0 0 5.05 5.049h.504a5.553 5.553 0 1 1 0 11.107H37.36a3.534 3.534 0 0 0 0 7.068 3.03 3.03 0 0 1 3.03 3.03h2.02a5.055 5.055 0 0 0-5.05-5.05 1.515 1.515 0 0 1 0-3.029z"/></g></g></g><g><g><g><path fill="#fff" d="M9.575 37.116l-1.97.443c.588 2.625 1.918 6.26 4.89 8.645l1.263-1.577c-2.518-2.015-3.66-5.196-4.183-7.51z"/></g></g></g><g><g><g><path fill="#fff" d="M9.088 33.299h-2.02c.014.718.069 1.435.165 2.147l2.003-.256a16.842 16.842 0 0 1-.148-1.891z"/></g></g></g></g></g></svg>