<svg xmlns="http://www.w3.org/2000/svg" width="64" height="61" viewBox="0 0 64 61"><g><g><g><path fill="#211a1b" d="M40.043 57.698a1.23 1.23 0 0 1-.434-.079c-5.162-1.933-9.488-4.752-12.86-8.376-3.047-3.275-5.418-7.327-7.048-12.042a1.237 1.237 0 1 1 2.337-.808c3.158 9.132 9.05 15.268 18.004 18.745 19.385-7.532 21.442-26.828 20.782-44.866C53.21 2.56 40.174 2.45 40.04 2.45c-.13 0-13.166.109-20.78 7.82-.241 6.62-.047 11.947.61 16.728a1.237 1.237 0 0 1-2.45.337c-.693-5.041-.888-10.644-.614-17.63.012-.298.131-.582.335-.8 3.452-3.668 8.51-6.375 14.628-7.828 4.584-1.088 8.124-1.1 8.273-1.1.148 0 3.688.012 8.272 1.1 6.118 1.453 11.176 4.16 14.628 7.829.204.217.323.5.335.799.482 12.311-.5 21.042-3.184 28.308-1.668 4.513-4.042 8.398-7.058 11.547-3.323 3.47-7.55 6.181-12.56 8.058-.14.053-.286.079-.433.079z"/></g><g><path fill="#211a1b" d="M36.8 21.688a1.237 1.237 0 0 0 1.048-1.891c-1.483-2.377-4.31-3.855-7.378-3.855-3.067 0-5.894 1.478-7.378 3.855a1.237 1.237 0 0 0 2.098 1.309c1.035-1.66 3.059-2.69 5.28-2.69s4.244 1.03 5.28 2.69c.234.376.638.582 1.05.582zm6.485 0c.412 0 .815-.206 1.05-.582 1.035-1.66 3.058-2.69 5.28-2.69 2.221 0 4.244 1.03 5.28 2.69a1.237 1.237 0 1 0 2.098-1.309c-1.484-2.377-4.31-3.855-7.378-3.855-3.068 0-5.895 1.478-7.378 3.855a1.236 1.236 0 0 0 1.048 1.891z"/></g><g><path fill="#211a1b" d="M40.043 37.896c3.47 0 6.75-.67 9.453-1.914-.519 3.953-4.56 7.04-9.453 7.04-4.894 0-8.935-3.087-9.454-7.039 2.703 1.242 5.983 1.913 9.454 1.913zm0 7.599c6.607 0 11.983-4.654 11.983-10.375 0-.458-.036-.922-.106-1.375a1.235 1.235 0 0 0-1.881-.86c-2.557 1.613-6.2 2.538-9.997 2.538-3.796 0-7.44-.925-9.996-2.537a1.235 1.235 0 0 0-1.882.859c-.07.454-.105.917-.105 1.375 0 5.721 5.376 10.375 11.984 10.375z"/></g><g><path fill="#211a1b" d="M31.311 60.561l-.463-.008c-4.385-.078-8.394-1.016-11.915-2.788-3.196-1.609-6.096-3.96-8.62-6.99C6.26 45.91 3.123 39.46.137 29.861L0 29.421l.186-.423c4.007-9.113 14.802-13.028 15.26-13.19.034-.013.848-.3 2.19-.627l.586 2.403a22.595 22.595 0 0 0-1.95.555c-.1.035-9.905 3.607-13.632 11.44 4.364 13.873 11.129 27.94 27.788 28.49 1.578-1.369 2.95-2.842 4.081-4.387l1.995 1.461c-1.333 1.819-2.96 3.542-4.838 5.12z"/></g><g><path fill="#211a1b" d="M19.521 33.273c.681 0 1.237-.555 1.237-1.236 0-.681-.556-1.237-1.237-1.237s-1.236.556-1.236 1.237c0 .68.555 1.236 1.236 1.236z"/></g></g></g></svg>