<svg xmlns="http://www.w3.org/2000/svg" width="60" height="60" viewBox="0 0 60 60"><g><g><g><g><g><path fill="#211a1b" d="M40.998 37.694a1.002 1.002 0 1 0-1.87.717c.913 2.385.98 4.209.18 5.01-.97.968-3.386.666-6.464-.807a42.858 42.858 0 0 1-11.09-8.277c-7.85-7.85-11.088-15.551-9.085-17.554a2.737 2.737 0 0 1 2.267-.53 1.002 1.002 0 0 0 .194-1.993 4.614 4.614 0 0 0-3.878 1.102c-3.671 3.67 1.941 13.244 9.084 20.388a44.811 44.811 0 0 0 11.643 8.666c.784.375 1.591.698 2.417.967l-7.119 2.7A28.361 28.361 0 0 1 9.342 25.994a1.002 1.002 0 0 0-1.98.31 30.22 30.22 0 0 0 .625 2.984A30.415 30.415 0 0 0 24.57 49.107L12.852 53.54a.984.984 0 0 0-.2-.238 13.96 13.96 0 0 1-5.17-9.702l-.465-5.63a.99.99 0 0 0-1.054-.922l-.031.003a1.002 1.002 0 0 0-.919 1.085l.473 5.628a15.961 15.961 0 0 0 5.301 10.556L2.43 57.484l1.503-6.168a1.002 1.002 0 1 0-1.948-.475L.029 58.857a1.002 1.002 0 0 0 1.329 1.175L38.43 46.004a.934.934 0 0 0 .166-.104 3.893 3.893 0 0 0 2.128-1.06c.992-.994 1.847-3.041.273-7.146z"/></g></g></g><g><g><g><path fill="#211a1b" d="M50.454 35.11a32.996 32.996 0 0 0-16.977-1.648l-3.58.6a1.002 1.002 0 0 0 .33 1.977l3.58-.597a30.968 30.968 0 0 1 15.943 1.55c.113.04.232.06.352.059a1.002 1.002 0 0 0 .352-1.941z"/></g></g></g><g><g><g><path fill="#211a1b" d="M54.016 19.586a1.002 1.002 0 0 0-1.336-.474L31.64 29.132a1.002 1.002 0 0 0 .861 1.81l21.042-10.02c.5-.238.712-.836.474-1.336z"/></g></g></g><g><g><g><path fill="#211a1b" d="M24.335 6.778a1.002 1.002 0 1 0-1.956.435 28.028 28.028 0 0 1-1.496 16.942l-1.457 3.496a1.002 1.002 0 0 0 .923 1.384c.405 0 .77-.243.925-.616l1.458-3.492a30.02 30.02 0 0 0 1.603-18.15z"/></g></g></g><g><g><g><path fill="#211a1b" d="M55.112 40.057a1.002 1.002 0 1 1 0-2.004 1.002 1.002 0 0 1 0 2.004zm0-4.008a3.006 3.006 0 1 0 0 6.011 3.006 3.006 0 0 0 0-6.011z"/></g></g></g><g><g><g><path fill="#211a1b" d="M31.064 12.001a1.002 1.002 0 1 1 0-2.004 1.002 1.002 0 0 1 0 2.004zm0-4.008a3.006 3.006 0 1 0 0 6.012 3.006 3.006 0 0 0 0-6.012z"/></g></g></g><g><g><g><path fill="#211a1b" d="M20.043 1.981a2.004 2.004 0 1 1 4.008 0 2.004 2.004 0 0 1-4.008 0z"/></g></g></g><g><g><g><path fill="#211a1b" d="M50.102 4.987c-.553 0-1.002.449-1.002 1.002v1.002a1.002 1.002 0 0 0 2.004 0V5.99c0-.553-.449-1.002-1.002-1.002z"/></g></g></g><g><g><g><path fill="#211a1b" d="M50.102-.023C49.55-.023 49.1.426 49.1.98v1.002a1.002 1.002 0 0 0 2.004 0V.98c0-.553-.449-1.002-1.002-1.002z"/></g></g></g><g><g><g><path fill="#211a1b" d="M53.108 2.983h-1.002a1.002 1.002 0 0 0 0 2.004h1.002a1.002 1.002 0 1 0 0-2.004z"/></g></g></g><g><g><g><path fill="#211a1b" d="M48.098 2.983h-1.002a1.002 1.002 0 0 0 0 2.004h1.002a1.002 1.002 0 0 0 0-2.004z"/></g></g></g><g><g><g><path fill="#211a1b" d="M42.086 16.009H39.06v-3.027h3.027zm1.002-5.03h-5.03c-.554 0-1.003.448-1.003 1.001v5.031c0 .553.449 1.002 1.002 1.002h5.031c.554 0 1.002-.449 1.002-1.002V11.98c0-.553-.448-1.002-1.002-1.002z"/></g></g></g><g><g><g><path fill="#211a1b" d="M35.789 19.345a1.002 1.002 0 0 0-1.387-.073l-10.02 9.018a1.002 1.002 0 0 0 1.34 1.49l10.02-9.019a1.002 1.002 0 0 0 .047-1.416z"/></g></g></g><g><g><g><path fill="#211a1b" d="M54.11 23.023c-.553 0-1.002.449-1.002 1.002v1.002a1.002 1.002 0 0 0 2.004 0v-1.002c0-.553-.449-1.002-1.002-1.002z"/></g></g></g><g><g><g><path fill="#211a1b" d="M58.361 22.85l-.708-.708a1.002 1.002 0 0 0-1.417 1.417l.709.708a1.002 1.002 0 0 0 1.416-1.416z"/></g></g></g><g><g><g><path fill="#211a1b" d="M59.12 19.015h-1.002a1.002 1.002 0 0 0 0 2.004h1.002a1.002 1.002 0 0 0 0-2.004z"/></g></g></g><g><g><g><path fill="#211a1b" d="M58.337 15.767a1.002 1.002 0 0 0-1.392 0l-.709.708a1.002 1.002 0 0 0 .709 1.71c.265 0 .52-.105.708-.293l.708-.709a1.002 1.002 0 0 0-.024-1.416z"/></g></g></g><g><g><g><path fill="#211a1b" d="M54.11 14.005c-.553 0-1.002.449-1.002 1.002v1.002a1.002 1.002 0 0 0 2.004 0v-1.002c0-.553-.449-1.002-1.002-1.002z"/></g></g></g><g><g><g><path fill="#211a1b" d="M51.984 16.475l-.709-.708a1.002 1.002 0 0 0-1.416 1.416l.708.709a1.002 1.002 0 0 0 1.417-1.417z"/></g></g></g><g><g><g><path fill="#211a1b" d="M7.818 6.344c-.236.23-.343.56-.288.886l.248 1.448-1.297-.685a1.002 1.002 0 0 0-.932 0l-1.303.684.249-1.448a1.002 1.002 0 0 0-.284-.885L3.158 5.319l1.454-.212c.326-.047.609-.252.755-.548l.648-1.315.65 1.315c.145.296.427.5.753.548l1.452.212zm4.16-2.034a1.002 1.002 0 0 0-.809-.681L8.229 3.2 6.916.536a1.043 1.043 0 0 0-1.798 0L3.801 3.201l-2.94.428a1.002 1.002 0 0 0-.557 1.708L2.43 7.41 1.93 10.34a1.002 1.002 0 0 0 1.455 1.06l2.63-1.387 2.63 1.383a1.002 1.002 0 0 0 1.454-1.056L9.598 7.41l2.128-2.074c.273-.267.37-.665.252-1.027z"/></g></g></g><g><g><g><path fill="#211a1b" d="M54.818 54.997a2.004 2.004 0 1 1-3.509-1.936l.01-.017a3.755 3.755 0 0 1 2.713-1.765c.174-.005.347.035.5.116.846.472.892 2.518.286 3.602zm1.92-4.795h-.005l-.413-.62a15.12 15.12 0 0 0-10.06-6.505 1.002 1.002 0 0 0-.331 1.975 13.11 13.11 0 0 1 7.646 4.263 5.911 5.911 0 0 0-4.008 2.752 4.008 4.008 0 1 0 6.999 3.908 5.811 5.811 0 0 0 .65-2.572 4.896 4.896 0 0 1 .22 5.203 1.002 1.002 0 1 0 1.749.976 6.995 6.995 0 0 0-2.448-9.38z"/></g></g></g></g></g></svg>