<svg xmlns="http://www.w3.org/2000/svg" width="60" height="61" viewBox="0 0 60 61"><g><g><g><path fill="#fff" d="M56.888 57.17H35.113a.865.865 0 0 1 0-1.731h21.775a.836.836 0 0 0 .84-.831V40.17a.836.836 0 0 0-.84-.831H2.57a.836.836 0 0 0-.84.83v14.438a.836.836 0 0 0 .84.83h17.916a.865.865 0 0 1 0 1.731H2.57A2.569 2.569 0 0 1 0 54.608V40.17a2.569 2.569 0 0 1 2.57-2.562h54.318a2.569 2.569 0 0 1 2.57 2.562v14.437a2.569 2.569 0 0 1-2.57 2.561z"/></g><g><path fill="#fff" d="M29.054 57.17h-2.51a.865.865 0 0 1 0-1.731h2.51a.865.865 0 1 1 0 1.73z"/></g><g><path fill="#fff" d="M53.285 48.66H51.1a.865.865 0 0 1 0-1.73h2.185a.865.865 0 1 1 0 1.73z"/></g><g><path fill="#fff" d="M46.952 48.66h-2.187a.865.865 0 0 1 0-1.73h2.187a.865.865 0 1 1 0 1.73z"/></g><g><path fill="#fff" d="M40.615 48.66H38.43a.865.865 0 0 1 0-1.73h2.185a.865.865 0 1 1 0 1.73z"/></g><g><path fill="#fff" d="M46.542 57.167h4.21v1.663h-4.21zm5.942 2.529V56.3a.865.865 0 0 0-.866-.865h-5.941a.865.865 0 0 0-.866.865v3.395c0 .478.388.865.866.865h5.941a.865.865 0 0 0 .866-.865z"/></g><g><path fill="#fff" d="M8.706 57.167h4.21v1.663h-4.21zm5.941 2.529V56.3a.865.865 0 0 0-.865-.865H7.84a.865.865 0 0 0-.865.865v3.395c0 .478.387.865.865.865h5.942a.865.865 0 0 0 .865-.865z"/></g><g><path fill="#fff" d="M46.225 17.806a1.17 1.17 0 0 1 2.337 0V37.61h-2.337zm3.203 21.535a.865.865 0 0 0 .865-.866V17.806a2.9 2.9 0 0 0-5.799 0v20.67c0 .477.388.865.866.865h4.068z"/></g><g><path fill="#fff" d="M58.236 6.193a.865.865 0 0 1-.613-.253c-5.642-5.642-14.79-5.642-20.432 0a.865.865 0 1 1-1.224-1.224c6.318-6.318 16.562-6.318 22.88 0a.865.865 0 0 1-.611 1.477z"/></g><g><path fill="#fff" d="M54.732 9.726a.86.86 0 0 1-.612-.253 9.506 9.506 0 0 0-13.426 0 .865.865 0 1 1-1.224-1.224c4.386-4.377 11.488-4.377 15.874 0a.865.865 0 0 1-.612 1.477z"/></g><g><path fill="#fff" d="M51.229 13.26a.865.865 0 0 1-.612-.253 4.546 4.546 0 0 0-6.42 0 .866.866 0 1 1-1.226-1.224 6.276 6.276 0 0 1 8.867 0 .865.865 0 0 1-.612 1.477z"/></g><g><path fill="#fff" d="M10.898 17.806a1.17 1.17 0 0 1 2.337 0V37.61h-2.337zM14.1 39.341a.865.865 0 0 0 .866-.866V17.806a2.9 2.9 0 0 0-5.799 0v20.67c0 .477.388.865.866.865z"/></g><g><path fill="#fff" d="M22.88 6.193a.865.865 0 0 1-.612-.253C16.626.298 7.478.298 1.836 5.94A.866.866 0 1 1 .61 4.716c6.318-6.318 16.562-6.318 22.88 0a.865.865 0 0 1-.611 1.477z"/></g><g><path fill="#fff" d="M19.376 9.726a.86.86 0 0 1-.612-.253 9.506 9.506 0 0 0-13.426 0 .867.867 0 0 1-1.227-1.224c4.386-4.377 11.488-4.377 15.874 0a.865.865 0 0 1-.612 1.477z"/></g><g><path fill="#fff" d="M15.873 13.26a.865.865 0 0 1-.612-.253 4.546 4.546 0 0 0-6.42 0 .865.865 0 1 1-1.223-1.224 6.276 6.276 0 0 1 8.867 0 .866.866 0 0 1-.612 1.477z"/></g></g></g></svg>