<svg xmlns="http://www.w3.org/2000/svg" width="64" height="60" viewBox="0 0 64 60"><g><g><g><path fill="#211a1b" d="M53.17 38.967a1.25 1.25 0 0 0-1.535-.892l-10.169 2.74c-1.297.35-2.632.602-3.967.749 0 0-2.295.245-3.163.347-1.225.143-1.96-1.123-1.14-2.102l2.018-2.175a48.92 48.92 0 0 0 2.648-3.106l3.5-4.471c.21-.27.594-1.14-.252-1.784-.529-.402-1.325-.26-1.755.29l-3.979 5.083c-.45.575-.93 1.138-1.426 1.673-.025.027-2.598 2.805-3.456 3.723-.712.762-1.857.986-2.743.592-1.356-.601-1.908-1.997-1.22-3.497.995-2.168 4.256-7.626 4.256-7.626.337-.587.13-1.377-.462-1.708-.587-.326-1.401-.1-1.707.462l-2.073 3.61a66.646 66.646 0 0 0-3.471 6.977 1.241 1.241 0 0 1-1.151.761h-4.375c-1.87 0-3.591.94-4.604 2.512l-.83 1.289c-.902 1.401-3.004.047-2.102-1.354l.83-1.289a7.944 7.944 0 0 1 6.706-3.658h3.554c.108-.246.219-.492.33-.737l-6.191-1.48c-1.48-.356-2.06-1.745-1.888-2.842-3.134 1.979-4.832 4.712-5.447 7.543l-.508 2.344a5.727 5.727 0 0 1-1.699 2.986l-2.924 2.727 4.708 9.807 1.437-1.936a15.126 15.126 0 0 1 8.17-5.552c4.18-1.132 24.108-5.495 26.517-6.145l8.679-2.339c.524-.12 1.099-.754.884-1.522zm1.36-2.386a3.89 3.89 0 0 1 1.05 1.715c.497 1.677-.326 3.928-2.644 4.608l-8.679 2.34c-2.532.682-22.366 5.013-26.52 6.145a12.633 12.633 0 0 0-6.809 4.626l-2.672 3.6c-.237.32-.584.515-1.056.504a1.25 1.25 0 0 1-1.075-.708L.123 46.907a1.25 1.25 0 0 1 .275-1.455l3.596-3.353a3.237 3.237 0 0 0 .96-1.688l.508-2.344a13.958 13.958 0 0 1 5.717-8.544l6.032-4.174-1.116-3.206c-.482-1.43.2-2.964 1.664-3.535 1.987-.775 2.302-2.571 2.233-3.57-.21-3.043.407-5.112 1.7-7.358 1.342-2.33 4.046-5.275 8.773-6.563 2.936-.8 5.975-1.14 9.034-1.14 4.01 0 7.214.72 7.465.775 1.61.362 1.061 2.802-.548 2.441-.222-.05-3.19-.715-6.917-.715-2.847 0-5.664.365-8.409 1.06-3.675.932-6.26 3.651-7.256 5.434-.997 1.783-1.514 3.37-1.353 5.847.18 2.772-1.229 5.104-3.812 6.118a.335.335 0 0 0-.198.423l1.413 4.065c.15.395.102.996-.44 1.418-1.576 1.229-2.862 2.783-3.62 4.622l2.17.52.766-1.62c.294-.623 1.033-.927 1.661-.644a1.25 1.25 0 0 1 .618 1.675l-.56 1.182 2.053.49a67.746 67.746 0 0 1 1.844-3.439l2.074-3.61c.82-1.437 3.022-2.559 5.122-1.382 1.804 1.01 2.413 3.328 1.383 5.12l-3.16 5.5c-.36.627-.694 1.276-.996 1.936.959-1.028 3.292-3.547 3.317-3.574.45-.484.883-.993 1.29-1.514l3.98-5.083a3.79 3.79 0 0 1 5.194-.771c1.348.948 2.328 3.393.75 5.348l-3.5 4.47a51.526 51.526 0 0 1-2.543 3.002 23.856 23.856 0 0 0 3.528-.67l8.422-2.27c7.008-1.894 11.72-8.1 11.725-15.442 0-.85-.067-1.716-.195-2.57-.573-3.777-2.362-7.226-5.177-9.972-1.19-1.161.543-2.938 1.747-1.79 3.514 3.351 5.371 7.762 5.902 11.388.143.979.223 1.97.223 2.944 0 5.916-2.738 12.11-8.931 15.891zM23.295 23.224a1.246 1.246 0 0 1 0-1.769c1.923-1.923 2.366-4.937 1.077-7.328a1.25 1.25 0 0 1 2.201-1.187 8.773 8.773 0 0 1 .956 5.333 8.675 8.675 0 0 1-2.466 4.95c-.337.34-1.132.624-1.768 0zm9.079-11.686a1.25 1.25 0 0 1 .805 1.575 11.71 11.71 0 0 0-.28 6.177c.06.269.261.482.523.556 2.768.787 5.734.949 8.577.469a1.25 1.25 0 0 1 .416 2.466c-1.205.203-5.226.776-9.677-.53a3.266 3.266 0 0 1-2.278-2.41 14.211 14.211 0 0 1 .34-7.498 1.25 1.25 0 0 1 1.574-.805zm18.319-7.602a1.252 1.252 0 1 1 2.504 0 1.252 1.252 0 0 1-2.504 0z"/></g></g></g></svg>