<svg xmlns="http://www.w3.org/2000/svg" width="84" height="61" viewBox="0 0 84 61"><g><g><g><path fill="#fff" d="M79.561 50.43H75.43a1.18 1.18 0 0 1 0-2.36h4.131a1.441 1.441 0 0 0 1.288-2.101 1.196 1.196 0 0 1-.094-.252L77.038 31.08a2.723 2.723 0 0 0-2.375-1.377H9.456a2.723 2.723 0 0 0-2.375 1.376L3.364 45.716a1.196 1.196 0 0 1-.095.252 1.441 1.441 0 0 0 1.288 2.102h28.944a1.18 1.18 0 1 1 0 2.36H4.557a3.802 3.802 0 0 1-3.45-5.414l3.723-14.66a1.15 1.15 0 0 1 .093-.249 5.076 5.076 0 0 1 4.533-2.765h65.207a5.076 5.076 0 0 1 4.532 2.765c.041.08.072.163.094.25l3.723 14.66a3.802 3.802 0 0 1-3.45 5.414z"/></g><g><path fill="#fff" d="M61.383 50.43H50.617a1.18 1.18 0 1 1 0-2.36h10.766a1.18 1.18 0 1 1 0 2.36z"/></g><g><path fill="#fff" d="M69.41 50.43h-2.007a1.18 1.18 0 1 1 0-2.36h2.007a1.18 1.18 0 1 1 0 2.36z"/></g><g><path fill="#fff" d="M63.543 29.705H52.988a1.18 1.18 0 0 1-1.18-1.18v-3.857a1.18 1.18 0 1 1 2.36 0v2.676h8.195v-2.676a1.18 1.18 0 1 1 2.36 0v3.857a1.18 1.18 0 0 1-1.18 1.18z"/></g><g><path fill="#fff" d="M48.088 23.737a5.339 5.339 0 0 1 5.334-5.332h9.687a5.339 5.339 0 0 1 5.334 5.332v3.607H48.088zm21.535 5.968a1.18 1.18 0 0 0 1.18-1.18v-4.788a7.702 7.702 0 0 0-7.694-7.693h-9.687a7.702 7.702 0 0 0-7.695 7.693v4.788c0 .651.528 1.18 1.18 1.18z"/></g><g><path fill="#fff" d="M58.265 2.338a4.434 4.434 0 1 1-.002 8.867 4.434 4.434 0 0 1 .002-8.867zm0 11.228a6.802 6.802 0 0 0 6.794-6.794 6.794 6.794 0 1 0-6.794 6.794z"/></g><g><path fill="#fff" d="M47.338 60.561H36.78a1.18 1.18 0 0 1-1.18-1.18v-3.858a1.18 1.18 0 1 1 2.36 0V58.2h8.198v-2.677a1.18 1.18 0 0 1 2.36 0v3.858a1.18 1.18 0 0 1-1.18 1.18z"/></g><g><path fill="#fff" d="M31.888 54.593a5.339 5.339 0 0 1 5.332-5.333h9.68a5.339 5.339 0 0 1 5.336 5.333V58.2H31.883zm21.528 5.968a1.18 1.18 0 0 0 1.176-1.18v-4.788a7.702 7.702 0 0 0-7.693-7.694h-9.68a7.702 7.702 0 0 0-7.697 7.694v4.788c0 .652.529 1.18 1.18 1.18z"/></g><g><path fill="#fff" d="M46.493 37.628a4.434 4.434 0 1 1-8.867 0 4.434 4.434 0 0 1 8.867 0zm-4.434 6.793a6.802 6.802 0 0 0 6.795-6.794 6.794 6.794 0 1 0-6.795 6.794z"/></g><g><path fill="#fff" d="M31.131 29.705H20.576a1.18 1.18 0 0 1-1.18-1.18v-3.857a1.18 1.18 0 1 1 2.36 0v2.676h8.195v-2.676a1.18 1.18 0 1 1 2.36 0v3.857a1.18 1.18 0 0 1-1.18 1.18z"/></g><g><path fill="#fff" d="M15.676 23.737a5.339 5.339 0 0 1 5.334-5.332h9.687a5.339 5.339 0 0 1 5.334 5.332v3.607H15.676zm22.716 4.788v-4.788a7.702 7.702 0 0 0-7.695-7.693H21.01a7.702 7.702 0 0 0-7.695 7.693v4.788c0 .651.528 1.18 1.18 1.18h22.716a1.18 1.18 0 0 0 1.18-1.18z"/></g><g><path fill="#fff" d="M30.286 6.771a4.434 4.434 0 1 1-8.867.001 4.434 4.434 0 0 1 8.867 0zm-4.433 6.795a6.802 6.802 0 0 0 6.794-6.794 6.794 6.794 0 1 0-6.794 6.794z"/></g></g></g></svg>