<svg xmlns="http://www.w3.org/2000/svg" width="41" height="42" viewBox="0 0 41 42"><g><g><g><path  d="M5.264 38.672a2.715 2.715 0 0 1-2.712-2.711V14.428h35.73V35.96a2.715 2.715 0 0 1-2.712 2.711zM8.932 6.133V7.41a1.276 1.276 0 0 0 2.552 0V6.133H29.35V7.41a1.276 1.276 0 0 0 2.552 0V6.133h3.669a2.715 2.715 0 0 1 2.711 2.712v3.03H2.552v-3.03a2.715 2.715 0 0 1 2.712-2.712zm22.969-2.552V1.667a1.276 1.276 0 0 0-2.552 0v1.914H11.484V1.667a1.276 1.276 0 0 0-2.552 0v1.914H5.264A5.27 5.27 0 0 0 0 8.845v27.116a5.27 5.27 0 0 0 5.264 5.263h30.305a5.27 5.27 0 0 0 5.264-5.263V8.845a5.27 5.27 0 0 0-5.264-5.264z"/></g></g></g></svg>