  <svg id="SVGDoc" width="100" height="112" xmlns="http://www.w3.org/2000/svg" version="1.1" xmlns:xlink="http://www.w3.org/1999/xlink" xmlns:avocode="https://avocode.com/" viewBox="0 0 91 112"><defs></defs><desc>Generated with Avocode.</desc><g><g><title>Group 16</title>
                                        <g transform="rotate(-135 48.5 50.5)"><title>Path 16</title><path d="M26.1179,13.77755l5.67822,0.00824c3.08392,0 6.16815,-0.00218 9.25183,-0.0043c6.74756,-0.00464 13.72467,-0.0093 20.58569,0.00893c15.28034,0.04072 28.52515,9.17865 33.74335,23.28011c3.58106,9.67836 3.16346,19.99977 -1.17596,29.063c-4.26087,8.89935 -11.90137,15.57422 -21.51337,18.79492c-0.9652,0.3233 -1.39984,0.22326 -2.11114,-0.48975c-16.56262,-16.6109 -33.42395,-33.47717 -49.73004,-49.78868c-6.95038,-6.95213 -13.90039,-13.90427 -20.84888,-20.85817c8.71527,-0.01572 17.55859,-0.01537 26.1203,-0.0143zM71.79932,87.96158c0.56128,0 1.15594,-0.10894 1.79608,-0.3233c10.3518,-3.46857 18.5852,-10.66748 23.18292,-20.27057c4.67669,-9.76697 5.13031,-20.87891 1.2785,-31.28885c-5.63617,-15.23204 -19.93011,-25.10224 -36.41528,-25.14619c-6.8656,-0.01822 -13.84534,-0.01393 -20.59528,-0.00891c-2.60694,0.00178 -5.21417,0.00355 -7.82123,0.00392l-7.10712,-0.00784c-8.84113,-0.00109 -17.98261,-0.00145 -26.97449,0.01569c-0.04675,0 -0.18182,-0.01854 -0.27142,-0.03069c-1.44312,-0.19685 -2.38416,0.25362 -2.79456,1.33812c-0.58374,1.54283 0.6408,2.4694 1.10168,2.81808c0.08032,0.0607 0.19037,0.14359 0.22754,0.18073c7.13824,7.14397 14.27856,14.28647 21.41864,21.42899c16.30542,16.31045 33.16644,33.17639 49.72723,49.78552c1.01026,1.01303 2.05262,1.50531 3.24677,1.50531z" fill="#ffffff" fill-opacity="1"></path></g>
                                        <g transform="rotate(-135 78.5 50.5)"><title>Path 72</title><path d="M57.1179,13.77755l5.67822,0.00824c3.08392,0 6.16815,-0.00218 9.25183,-0.0043c6.74756,-0.00464 13.72467,-0.0093 20.58569,0.00893c15.28034,0.04072 28.52515,9.17865 33.74335,23.28011c3.58106,9.67836 3.16346,19.99977 -1.17596,29.063c-4.26087,8.89935 -11.90137,15.57422 -21.51337,18.79492c-0.9652,0.3233 -1.39984,0.22326 -2.11114,-0.48975c-16.56262,-16.6109 -33.42395,-33.47717 -49.73004,-49.78868c-6.95038,-6.95213 -13.90039,-13.90427 -20.84888,-20.85817c8.71527,-0.01572 17.55859,-0.01537 26.1203,-0.0143zM102.79932,87.96158c0.56128,0 1.15594,-0.10894 1.79608,-0.3233c10.3518,-3.46857 18.5852,-10.66748 23.18292,-20.27057c4.67669,-9.76697 5.13031,-20.87891 1.2785,-31.28885c-5.63617,-15.23204 -19.93011,-25.10224 -36.41528,-25.14619c-6.8656,-0.01822 -13.84534,-0.01393 -20.59528,-0.00891c-2.60694,0.00178 -5.21417,0.00355 -7.82123,0.00392l-7.10712,-0.00784c-8.84113,-0.00109 -17.98261,-0.00145 -26.97449,0.01569c-0.04675,0 -0.18182,-0.01854 -0.27142,-0.03069c-1.44312,-0.19685 -2.38416,0.25362 -2.79456,1.33812c-0.58374,1.54283 0.6408,2.4694 1.10168,2.81808c0.08032,0.0607 0.19037,0.14359 0.22754,0.18073c7.13824,7.14397 14.27856,14.28647 21.41864,21.42899c16.30542,16.31045 33.16644,33.17639 49.72723,49.78552c1.01026,1.01303 2.05262,1.50531 3.24677,1.50531z" fill="#ffffff" fill-opacity="1"></path></g></g></g></svg>