<svg xmlns="http://www.w3.org/2000/svg" width="33" height="33" viewBox="0 0 33 33"><g><g><g><path fill="#fff" d="M15.072 25.063a.642.642 0 1 0 .908.908.642.642 0 0 0-.908-.908z"/></g><g><path fill="#fff" d="M20.415 30.737c-3.514-1.284-7.37-3.912-10.856-7.397-3.405-3.405-5.984-7.158-7.261-10.568-.959-2.56-1.602-6.11.778-8.49l1.358-1.358 5.62 8.265-.947.948a1.919 1.919 0 0 0-.44 2.044c.203.832 1.135 2.558 2.076 3.83 1.385 1.873 3.898 4.46 8.007 6.161a1.92 1.92 0 0 0 2.098-.418l.93-.93 8.308 6.22-.742.74c-2.55 2.552-6.263 1.927-8.929.953zM8.497 2.177l.02.03 3.52 4.89a1.914 1.914 0 0 1-.273 2.382l-.785.785L5.359 2l.15-.15a1.927 1.927 0 0 1 2.988.327zm17.37 18.634l4.871 4.142c.022.02.046.037.071.053a1.927 1.927 0 0 1 .327 2.987l-.133.133-8.307-6.22.81-.81a1.914 1.914 0 0 1 2.361-.285zm5.67 3.137l-4.874-4.146a.658.658 0 0 0-.071-.052 3.19 3.19 0 0 0-3.994.438l-2.658 2.658a.64.64 0 0 1-.7.14c-3-1.242-5.466-3.111-7.327-5.556-1.42-1.863-1.932-3.345-1.999-3.553a.638.638 0 0 0-.039-.133.639.639 0 0 1 .14-.699l2.657-2.658a3.19 3.19 0 0 0 .418-4.024L9.57 1.471A3.21 3.21 0 0 0 4.6.94l-.532.532-.001.001-1.9 1.9C-.098 5.64-.47 9.046 1.096 13.222 2.436 16.8 5.12 20.716 8.65 24.248c3.616 3.615 7.637 6.348 11.324 7.695 3.649 1.333 7.53 1.497 10.277-1.25l1.793-1.792a3.21 3.21 0 0 0-.507-4.953z"/></g><g><path fill="#fff" d="M13.867 23.53c-.678-.595-1.851-1.618-2.469-2.253-1.515-1.557-3.104-3.444-4.05-4.808a.642.642 0 1 0-1.055.732c1.192 1.72 2.943 3.695 4.185 4.971.652.671 1.835 1.703 2.542 2.323a.642.642 0 0 0 .847-.965z"/></g></g></g></svg>