<svg xmlns="http://www.w3.org/2000/svg" width="75" height="84" viewBox="0 0 75 84"><g><g><g><path fill="#fff" d="M1.931 31.775V28.64c0-5.908-.002-11.815.006-17.722C14.54 23.509 27.14 36.102 39.74 48.694c8.773 8.768 17.546 17.536 26.32 26.302 1.088 1.088 2.182 2.168 3.277 3.249a783.668 783.668 0 0 1 3.076 3.048l-13.313.002c-9.482.001-19.287.002-28.93.02-.808 0-1.277-.188-1.764-.7-3.16-3.326-6.468-6.606-9.666-9.779l-1.868-1.854a1872.806 1872.806 0 0 1-4.766-4.76c-3.148-3.153-6.404-6.413-9.655-9.574-.403-.392-.538-.736-.536-1.362.022-5.583.02-11.259.017-16.748l-.001-4.763zm71.562 51.46c.46 0 1.075-.123 1.392-.795.482-1.025-.354-1.758-.668-2.035-.053-.046-.105-.09-.15-.135-1.128-1.129-2.264-2.25-3.4-3.372a752.826 752.826 0 0 1-3.269-3.24l-26.32-26.302C28.307 34.59 15.535 21.826 2.76 9.064a2.1 2.1 0 0 1-.117-.143c-.225-.286-.822-1.046-1.765-.703-.686.25-.972.845-.85 1.767.008.054.019.136.019.164-.01 6.164-.009 12.328-.008 18.492l.002 7.897C.042 42.026.044 47.7.023 53.28c-.005 1.135.337 1.976 1.108 2.726 3.242 3.151 6.492 6.406 9.636 9.554 1.589 1.59 3.177 3.18 4.77 4.765l1.87 1.856c3.189 3.163 6.486 6.433 9.627 9.738.847.892 1.811 1.29 3.125 1.29h.014c9.642-.018 19.446-.02 28.927-.02 4.58 0 9.16 0 13.742-.003.046 0 .138.01.218.02.105.012.258.03.433.03z"/></g><g><path fill="#fff" d="M3.214 1.913c5.773-.01 11.63-.01 17.3-.01l3.761.006c2.043 0 4.086-.001 6.128-.003 4.47-.003 9.09-.006 13.635.006 10.12.027 18.893 6.08 22.35 15.42 2.37 6.41 2.094 13.246-.78 19.249-2.822 5.894-7.882 10.315-14.249 12.448-.64.214-.927.148-1.398-.324-10.97-11.002-22.138-22.173-32.938-32.977L3.214 1.913zm48.746 48.91c6.857-2.297 12.31-7.065 15.355-13.425 3.098-6.469 3.398-13.829.847-20.724C64.429 6.586 54.962.048 44.043.02 39.496.007 34.873.01 30.403.013l-5.181.003-4.707-.005C14.659.01 8.605.01 2.649.02c-.031 0-.12-.012-.18-.02C1.513-.13.889.169.618.887c-.387 1.022.424 1.636.73 1.867.053.04.126.095.15.12 4.728 4.731 9.457 9.462 14.187 14.192C26.485 27.87 37.652 39.04 48.62 50.041c.67.67 1.36.997 2.15.997a3.75 3.75 0 0 0 1.19-.214z"/></g></g></g></svg>