<svg xmlns="http://www.w3.org/2000/svg" width="245" height="322" viewBox="0 0 245 322"><g><g><path fill="none" stroke="#fff" stroke-miterlimit="20" stroke-width="3" d="M2 1.492l154 154"/></g><g><path fill="none" stroke="#fff" stroke-miterlimit="20" stroke-width="3" d="M33 111.992l209 209"/></g><g><g transform="rotate(-135 183.5 69.5)"><path class="_q" fill="#fff" d="M179.618 26.653l5.678.008c3.084 0 6.168-.002 9.252-.004 6.748-.005 13.725-.01 20.586.009 15.28.04 28.525 9.178 33.743 23.28 3.581 9.678 3.163 20-1.176 29.063-4.26 8.9-11.901 15.574-21.513 18.795-.966.323-1.4.223-2.111-.49-16.563-16.611-33.424-33.477-49.73-49.789l-20.85-20.858c8.716-.016 17.56-.015 26.12-.014zm45.681 74.184c.562 0 1.156-.11 1.796-.323 10.352-3.469 18.586-10.668 23.183-20.271 4.677-9.767 5.13-20.879 1.279-31.289-5.636-15.232-19.93-25.102-36.415-25.146-6.866-.018-13.846-.014-20.596-.009-2.607.002-5.214.004-7.821.004l-7.107-.008c-8.841-.001-17.983-.001-26.975.016-.046 0-.181-.019-.271-.03-1.443-.198-2.384.253-2.795 1.337-.583 1.543.641 2.47 1.102 2.818.08.061.19.144.228.181 7.138 7.144 14.278 14.286 21.418 21.429 16.306 16.31 33.167 33.176 49.728 49.786 1.01 1.013 2.052 1.505 3.246 1.505z"/></g><g transform="rotate(-135 214.5 69.5)"><path class="_q" fill="#fff" d="M210.618 26.653l5.678.008c3.084 0 6.168-.002 9.252-.004 6.748-.005 13.725-.01 20.586.009 15.28.04 28.525 9.178 33.743 23.28 3.581 9.678 3.163 20-1.176 29.063-4.26 8.9-11.901 15.574-21.513 18.795-.966.323-1.4.223-2.111-.49-16.563-16.611-33.424-33.477-49.73-49.789l-20.85-20.858c8.716-.016 17.56-.015 26.12-.014zm45.681 74.184c.562 0 1.156-.11 1.796-.323 10.352-3.469 18.586-10.668 23.183-20.271 4.677-9.767 5.13-20.879 1.279-31.289-5.636-15.232-19.93-25.102-36.415-25.146-6.866-.018-13.846-.014-20.596-.009-2.607.002-5.214.004-7.821.004l-7.107-.008c-8.841-.001-17.983-.001-26.975.016-.046 0-.181-.019-.271-.03-1.443-.198-2.384.253-2.795 1.337-.583 1.543.641 2.47 1.102 2.818.08.061.19.144.228.181 7.138 7.144 14.278 14.286 21.418 21.429 16.306 16.31 33.167 33.176 49.728 49.786 1.01 1.013 2.052 1.505 3.246 1.505z"/></g></g></g></svg>